<svg xmlns="http://www.w3.org/2000/svg" viewBox="86.773 123.305 421.735 595.28"><title>HTML5 Logo</title><path fill="#f44a4f" d="M125.153 670.773l-38.38-430.482h421.735l-38.422 430.415-172.704 47.879z"/><path fill="#ebebeb" d="M297.64 435.149h-69.864l-4.825-54.064h74.689v-52.798H165.251l1.263 14.165 12.977 145.493H297.64zm0 137.119l-.231.062-58.801-15.877-3.758-42.108h-53l7.397 82.898 108.15 30.023.243-.067z"/><path d="M126.011 123.305h26.831v26.509h24.544v-26.509h26.832v80.274h-26.831v-26.881h-24.544v26.881h-26.831v-80.274h-.001zm113.489 26.62h-23.62v-26.62h74.084v26.62h-23.631v53.654h-26.832v-53.654h-.001zm62.222-26.62h27.977l17.21 28.206 17.192-28.206h27.987v80.274h-26.72v-39.788l-18.46 28.542h-.462l-18.472-28.542v39.788h-26.253v-80.274zm103.719 0h26.839v53.74h37.732v26.534h-64.57v-80.274z"/><path fill="#fff" d="M297.457 435.149v52.796h65.014l-6.128 68.474-58.886 15.893v54.929l108.237-29.998.794-8.92 12.407-138.996 1.288-14.178h-14.228zm0-106.862v52.798h127.53l1.059-11.868 2.406-26.765 1.262-14.165z"/></svg>