<svg height="700" viewBox="0 0 586.016 575.146" width="700" xmlns="http://www.w3.org/2000/svg"><radialGradient cx="293" cy="287.6" gradientUnits="userSpaceOnUse" id="a" r="288.2"><stop offset="0" stop-opacity=".05"/><stop offset="1" stop-opacity="0"/></radialGradient><path d="M293.008 575.76a288.98 288.98 0 0 1-68.81-8.301l67.293-274.207c.449.1.9.2 1.5.163h.131l-.255.001 1.498 282.341-1.357.003zm79.763-11.22L294.715 293.2c.382-.11.75-.271 1.125-.488l142.083 243.989C417.438 548.6 395.5 558 372.8 564.54zm-222.566-26.621a288.993 288.993 0 0 1-56.518-42.205l195.293-203.91c.386.4.8.7 1.2.934L150.205 537.919zm350.09-50.136L297.229 291.611c.366-.378.678-.789.926-1.22l244.596 141.038C530.976 451.9 516.7 470.8 500.3 487.783zm-455.8-54.244a287.62 287.62 0 0 1-28.109-65.014l270.997-79.242c.115.4.3.8.5 1.146L44.495 433.539zm528.104-75.964l-273.918-68.467c.114-.453.169-.956.169-1.536l282.303-4.933c.028 1.6 0 3.3 0 4.933a286.823 286.823 0 0 1-8.553 70.003zM4.832 289.944c-.006-.728-.009-1.456-.01-2.184v-.188c0-22.805 2.696-45.556 8.012-67.622l274.491 66.13a6.24 6.24 0 0 0-.157 1.41v.207L4.832 289.944zm293.788-4.127a4.984 4.984 0 0 0-.509-1.138l242.161-145.177c12.184 20.3 21.8 42.1 28.7 64.773L298.62 285.817zm-10.788-1.011L42.058 145.833a288.893 288.893 0 0 1 41.968-56.699l204.732 194.431c-.368.435-.658.835-.958 1.241zm9.16-1.504a6.34 6.34 0 0 0-1.237-.916L433.681 36.022c20.564 11.5 39.7 25.6 56.9 41.734L296.992 283.302zm-6.857-.844L145.986 39.684a287.664 287.664 0 0 1 64.895-28.388l80.396 270.657c-.386.147-.777.247-1.177.505zm4.348-.574a6.38 6.38 0 0 0-1.475-.153h-.12L289.386-.591c23.547-.299 47.2 2.3 70 7.704l-64.903 274.771z" fill="url(#a)"/></svg>