<?xml version="1.0" encoding="iso-8859-1"?>
<!-- Generator: Adobe Illustrator 17.1.0, SVG Export Plug-In . SVG Version: 6.00 Build 0)  -->
<!DOCTYPE svg PUBLIC "-//W3C//DTD SVG 1.1//EN" "http://www.w3.org/Graphics/SVG/1.1/DTD/svg11.dtd">
<svg version="1.1" id="Calque_1" xmlns="http://www.w3.org/2000/svg" xmlns:xlink="http://www.w3.org/1999/xlink" x="0px" y="0px"
	 viewBox="86.773 123.305 421.735 595.28" style="enable-background:new 86.773 123.305 421.735 595.28;" xml:space="preserve">
<title>HTML5 Logo</title>
<polygon style="fill:#F44A4F;" points="125.153,670.773 86.773,240.291 508.508,240.291 470.086,670.706 297.382,718.585 "/>
<polygon style="fill:#EBEBEB;" points="297.64,435.149 227.776,435.149 222.951,381.085 297.64,381.085 297.64,328.287 
	297.457,328.287 165.251,328.287 166.514,342.452 179.491,487.945 297.64,487.945 "/>
<polygon style="fill:#EBEBEB;" points="297.64,572.268 297.409,572.33 238.608,556.453 234.85,514.345 206.277,514.345 
	181.85,514.345 189.247,597.243 297.397,627.266 297.64,627.199 "/>
<path d="M126.011,123.305h26.831v26.509h24.544v-26.509h26.832v80.274h-26.831v-26.881h-24.544v26.881h-26.831v-80.274H126.011z"/>
<path d="M239.5,149.925H215.88v-26.62h74.084v26.62h-23.631v53.654h-26.832v-53.654H239.5z"/>
<path d="M301.722,123.305h27.977l17.21,28.206l17.192-28.206h27.987v80.274h-26.72v-39.788l-18.46,28.542h-0.462l-18.472-28.542
	v39.788h-26.253V123.305z"/>
<path d="M405.441,123.305h26.839v53.74h37.732v26.534h-64.57V123.305z"/>
<polygon style="fill:#FFFFFF;" points="297.457,435.149 297.457,487.945 362.471,487.945 356.343,556.419 297.457,572.312 
	297.457,627.241 405.694,597.243 406.488,588.323 418.895,449.327 420.183,435.149 405.955,435.149 "/>
<polygon style="fill:#FFFFFF;" points="297.457,328.287 297.457,361.079 297.457,380.955 297.457,381.085 424.817,381.085 
	424.817,381.085 424.987,381.085 426.046,369.217 428.452,342.452 429.714,328.287 "/>
</svg>
