<svg enable-background="/statics/images/new 0 0 586.016 575.146" height="700px" version="1.1" viewBox="0 0 586.016 575.146" width="700px" x="0px" xml:space="preserve" xmlns="http://www.w3.org/2000/svg" y="0px"><radialGradient cx="293" cy="287.6" gradientUnits="userSpaceOnUse" id="SVGID_2_" r="288.2"><stop offset="0" style="stop-color: #000; stop-opacity: 0.05"></stop><stop offset="1" style="stop-color: #000; stop-opacity: 0"></stop></radialGradient><path d="M293.008 575.76c-23.217 0-46.367-2.793-68.81-8.301l67.293-274.207c0.449 0.1 0.9 0.2 1.5 0.163h0.131l-0.255 0.001l1.498 282.341L293.008 575.76z M372.771 564.54L294.715 293.2c0.382-0.11 0.75-0.271 1.125-0.488l142.083 243.989C417.438 548.6 395.5 558 372.8 564.54z M150.205 537.919c-20.462-11.686-39.478-25.885-56.518-42.205l195.293-203.91c0.386 0.4 0.8 0.7 1.2 0.934L150.205 537.919z M500.295 487.783L297.229 291.611c0.366-0.378 0.678-0.789 0.926-1.22l244.596 141.038C530.976 451.9 516.7 470.8 500.3 487.783z M44.495 433.539c-12.01-20.426-21.468-42.299-28.109-65.014l270.997-79.242c0.115 0.4 0.3 0.8 0.5 1.146L44.495 433.539z M572.599 357.575l-273.918-68.467c0.114-0.453 0.169-0.956 0.169-1.536l282.303-4.933c0.028 1.6 0 3.3 0 4.933C581.194 311.2 578.3 334.8 572.6 357.575z M4.832 289.944c-0.006-0.728-0.009-1.456-0.01-2.184v-0.188c0-22.805 2.696-45.556 8.012-67.622l274.491 66.13c-0.101 0.419-0.152 0.881-0.157 1.41l0 0.207L4.832 289.944z M298.62 285.817c-0.115-0.384-0.286-0.768-0.509-1.138l242.161-145.177c12.184 20.3 21.8 42.1 28.7 64.773L298.62 285.817z M287.832 284.806L42.058 145.833c11.598-20.512 25.718-39.589 41.968-56.699l204.732 194.431C288.39 284 288.1 284.4 287.8 284.806z M296.992 283.302c-0.386-0.364-0.803-0.672-1.237-0.916L433.681 36.022c20.564 11.5 39.7 25.6 56.9 41.734L296.992 283.302z M290.135 282.458L145.986 39.684c20.375-12.098 42.209-21.649 64.895-28.388l80.396 270.657C290.891 282.1 290.5 282.2 290.1 282.458z M294.483 281.884c-0.436-0.103-0.918-0.153-1.475-0.153l-0.12 0L289.386-0.591 c23.547-0.299 47.2 2.3 70 7.704L294.483 281.884z" fill="url(#SVGID_2_)"></path></svg>